# 3ds Max Wavefront OBJ Exporter v0.97b - (c)2007 guruware
# File Created: 04.11.2020 23:14:31

mtllib cylinder.mtl

#
# object Cylinder001
#

v  0.0000 0.0000 -0.0000
v  0.0678 0.0000 -0.1175
v  0.1357 0.0000 -0.0000
v  -0.0678 0.0000 -0.1175
v  -0.1357 0.0000 -0.0000
v  -0.0678 0.0000 0.1175
v  0.0678 0.0000 0.1175
v  0.0678 0.1357 -0.1175
v  0.1357 0.1357 -0.0000
v  -0.0678 0.1357 -0.1175
v  -0.1357 0.1357 -0.0000
v  -0.0678 0.1357 0.1175
v  0.0678 0.1357 0.1175
v  0.0678 0.2714 -0.1175
v  0.1357 0.2714 -0.0000
v  -0.0678 0.2714 -0.1175
v  -0.1357 0.2714 -0.0000
v  -0.0678 0.2714 0.1175
v  0.0678 0.2714 0.1175
v  0.0678 0.4070 -0.1175
v  0.1357 0.4070 -0.0000
v  -0.0678 0.4070 -0.1175
v  -0.1357 0.4070 -0.0000
v  -0.0678 0.4070 0.1175
v  0.0678 0.4070 0.1175
v  0.0678 0.5427 -0.1175
v  0.1357 0.5427 -0.0000
v  -0.0678 0.5427 -0.1175
v  -0.1357 0.5427 -0.0000
v  -0.0678 0.5427 0.1175
v  0.0678 0.5427 0.1175
v  0.0678 0.6784 -0.1175
v  0.1357 0.6784 -0.0000
v  -0.0678 0.6784 -0.1175
v  -0.1357 0.6784 -0.0000
v  -0.0678 0.6784 0.1175
v  0.0678 0.6784 0.1175
v  0.0000 0.6784 -0.0000
# 38 vertices

vn 0.0000 -1.0000 -0.0000
vn 1.0000 -0.0000 0.0000
vn 0.5000 -0.0000 -0.8660
vn 1.0000 -0.0000 -0.0000
vn -0.5000 -0.0000 -0.8660
vn -1.0000 -0.0000 0.0000
vn -0.5000 -0.0000 0.8660
vn 0.5000 -0.0000 0.8660
vn 0.5000 0.0000 -0.8660
vn 1.0000 0.0000 -0.0000
vn -0.5000 0.0000 -0.8660
vn -1.0000 0.0000 0.0000
vn -0.5000 0.0000 0.8660
vn 0.5000 0.0000 0.8660
vn 1.0000 0.0000 0.0000
vn 0.0000 1.0000 -0.0000
# 16 vertex normals

vt 0.5000 0.0000 0.0000
vt 0.9167 0.0000 1.0000
vt 0.7500 0.0000 1.0000
vt 0.0833 0.0000 1.0000
vt -0.0833 0.0000 1.0000
vt 0.2500 0.0000 1.0000
vt 0.4167 0.0000 1.0000
vt 0.5833 0.0000 1.0000
vt 0.9167 0.2000 1.0000
vt 0.7500 0.2000 1.0000
vt 0.0833 0.2000 1.0000
vt -0.0833 0.2000 1.0000
vt 0.2500 0.2000 1.0000
vt 0.4167 0.2000 1.0000
vt 0.5833 0.2000 1.0000
vt 0.9167 0.4000 1.0000
vt 0.7500 0.4000 1.0000
vt 0.0833 0.4000 1.0000
vt -0.0833 0.4000 1.0000
vt 0.2500 0.4000 1.0000
vt 0.4167 0.4000 1.0000
vt 0.5833 0.4000 1.0000
vt 0.9167 0.6000 1.0000
vt 0.7500 0.6000 1.0000
vt 0.0833 0.6000 1.0000
vt -0.0833 0.6000 1.0000
vt 0.2500 0.6000 1.0000
vt 0.4167 0.6000 1.0000
vt 0.5833 0.6000 1.0000
vt 0.9167 0.8000 1.0000
vt 0.7500 0.8000 1.0000
vt 0.0833 0.8000 1.0000
vt -0.0833 0.8000 1.0000
vt 0.2500 0.8000 1.0000
vt 0.4167 0.8000 1.0000
vt 0.5833 0.8000 1.0000
vt 0.9167 1.0000 1.0000
vt 0.7500 1.0000 1.0000
vt 0.0833 1.0000 1.0000
vt -0.0833 1.0000 1.0000
vt 0.2500 1.0000 1.0000
vt 0.4167 1.0000 1.0000
vt 0.5833 1.0000 1.0000
vt 0.5000 1.0000 0.0000
# 44 texture coords

o Cylinder001
g Cylinder001
usemtl wire_153228184
s 1
f 1/1/1 2/2/1 3/3/1 
f 1/1/1 4/4/1 2/5/1 
f 1/1/1 5/6/1 4/4/1 
f 1/1/1 6/7/1 5/6/1 
f 1/1/1 7/8/1 6/7/1 
f 1/1/1 3/3/1 7/8/1 
s 8
f 3/3/2 8/9/3 9/10/4 
f 3/3/2 2/2/3 8/9/3 
f 2/5/3 10/11/5 8/12/3 
f 2/5/3 4/4/5 10/11/5 
f 4/4/5 11/13/6 10/11/5 
f 4/4/5 5/6/6 11/13/6 
f 5/6/6 12/14/7 11/13/6 
f 5/6/6 6/7/7 12/14/7 
f 6/7/7 13/15/8 12/14/7 
f 6/7/7 7/8/8 13/15/8 
f 7/8/8 9/10/4 13/15/8 
f 7/8/8 3/3/2 9/10/4 
f 9/10/4 14/16/9 15/17/10 
f 9/10/4 8/9/3 14/16/9 
f 8/12/3 16/18/11 14/19/9 
f 8/12/3 10/11/5 16/18/11 
f 10/11/5 17/20/12 16/18/11 
f 10/11/5 11/13/6 17/20/12 
f 11/13/6 18/21/13 17/20/12 
f 11/13/6 12/14/7 18/21/13 
f 12/14/7 19/22/14 18/21/13 
f 12/14/7 13/15/8 19/22/14 
f 13/15/8 15/17/10 19/22/14 
f 13/15/8 9/10/4 15/17/10 
f 15/17/10 20/23/9 21/24/15 
f 15/17/10 14/16/9 20/23/9 
f 14/19/9 22/25/5 20/26/9 
f 14/19/9 16/18/11 22/25/5 
f 16/18/11 23/27/12 22/25/5 
f 16/18/11 17/20/12 23/27/12 
f 17/20/12 24/28/13 23/27/12 
f 17/20/12 18/21/13 24/28/13 
f 18/21/13 25/29/14 24/28/13 
f 18/21/13 19/22/14 25/29/14 
f 19/22/14 21/24/15 25/29/14 
f 19/22/14 15/17/10 21/24/15 
f 21/24/15 26/30/9 27/31/10 
f 21/24/15 20/23/9 26/30/9 
f 20/26/9 28/32/5 26/33/9 
f 20/26/9 22/25/5 28/32/5 
f 22/25/5 29/34/6 28/32/5 
f 22/25/5 23/27/12 29/34/6 
f 23/27/12 30/35/7 29/34/6 
f 23/27/12 24/28/13 30/35/7 
f 24/28/13 31/36/14 30/35/7 
f 24/28/13 25/29/14 31/36/14 
f 25/29/14 27/31/10 31/36/14 
f 25/29/14 21/24/15 27/31/10 
f 27/31/10 32/37/9 33/38/10 
f 27/31/10 26/30/9 32/37/9 
f 26/33/9 34/39/11 32/40/9 
f 26/33/9 28/32/5 34/39/11 
f 28/32/5 35/41/12 34/39/11 
f 28/32/5 29/34/6 35/41/12 
f 29/34/6 36/42/13 35/41/12 
f 29/34/6 30/35/7 36/42/13 
f 30/35/7 37/43/14 36/42/13 
f 30/35/7 31/36/14 37/43/14 
f 31/36/14 33/38/10 37/43/14 
f 31/36/14 27/31/10 33/38/10 
s 1
f 38/44/16 33/38/16 32/37/16 
f 38/44/16 32/40/16 34/39/16 
f 38/44/16 34/39/16 35/41/16 
f 38/44/16 35/41/16 36/42/16 
f 38/44/16 36/42/16 37/43/16 
f 38/44/16 37/43/16 33/38/16 
# 72 faces

